<?xml version="1.0" standalone="no"?>
<!DOCTYPE svg PUBLIC "-//W3C//DTD SVG 20010904//EN"
 "http://www.w3.org/TR/2001/REC-SVG-20010904/DTD/svg10.dtd">
<svg version="1.0" xmlns="http://www.w3.org/2000/svg"
 width="400.000000pt" height="400.000000pt" viewBox="0 0 400.000000 400.000000"
 preserveAspectRatio="xMidYMid meet">

<g transform="translate(0.000000,400.000000) scale(0.100000,-0.100000)"
fill="#000000" stroke="none">
<path d="M0 2000 l0 -2000 2000 0 2000 0 0 2000 0 2000 -2000 0 -2000 0 0
-2000z m1365 1318 c40 -18 68 -72 61 -113 -4 -19 -5 -35 -3 -35 2 0 23 27 47
60 45 62 71 77 114 66 26 -6 51 -54 43 -83 -4 -13 -5 -12 -6 6 -1 34 -29 61
-62 61 -23 0 -38 -14 -91 -82 -126 -165 -277 -415 -278 -463 0 -17 -2 -17 -10
-5 -7 12 -10 8 -10 -15 0 -36 -19 -73 -20 -40 -1 35 -30 -30 -32 -70 -1 -20
-5 -38 -10 -41 -4 -3 -5 -22 -2 -43 4 -26 2 -41 -6 -46 -9 -6 -11 -4 -5 5 5 9
4 11 -4 6 -6 -4 -9 -11 -6 -16 3 -5 1 -19 -4 -33 -7 -18 -5 -29 7 -43 16 -17
16 -17 -2 -3 -18 12 -19 12 -13 -3 3 -9 1 -18 -4 -20 -22 -7 5 -35 60 -61 33
-15 73 -39 90 -53 34 -28 36 -27 21 10 -7 19 -6 24 4 20 14 -5 26 34 26 85 0
20 2 23 10 11 7 -11 8 -5 4 20 -11 65 -26 102 -56 136 -31 35 -62 46 -52 19 8
-19 -19 -20 -35 -2 -14 18 -4 27 31 27 39 0 67 -15 100 -54 20 -22 28 -26 28
-14 0 9 27 68 60 131 39 76 60 127 60 150 0 39 -38 102 -62 102 -9 0 -20 4
-24 8 -4 4 5 7 19 7 15 0 41 -13 62 -32 31 -26 38 -29 49 -17 34 38 122 199
143 263 20 59 23 64 18 29 -5 -38 -3 -43 14 -43 11 0 29 -12 41 -27 19 -24 21
-37 18 -94 -4 -55 -13 -82 -55 -160 -28 -52 -58 -116 -67 -144 -9 -27 -26 -66
-36 -85 l-20 -35 7 45 c3 25 20 70 36 100 97 176 127 242 127 281 0 50 -13 74
-47 93 l-27 14 -57 -112 c-31 -61 -82 -156 -115 -211 -69 -119 -113 -219 -114
-257 0 -16 -5 -28 -11 -28 -6 0 -8 -7 -5 -16 3 -8 2 -12 -4 -9 -16 10 -12 -13
8 -42 10 -17 12 -24 4 -19 -10 6 -13 1 -11 -20 1 -16 1 -42 0 -59 -1 -23 -3
-27 -11 -15 -7 10 -10 11 -10 2 0 -7 7 -15 15 -19 12 -4 14 -16 10 -52 l-5
-46 67 -35 c37 -19 69 -36 72 -38 8 -3 5 212 -3 242 -3 13 -18 36 -33 51 -16
16 -21 25 -13 20 13 -8 13 -7 1 9 -11 13 -16 14 -22 4 -6 -9 -10 -8 -15 5 -20
53 48 22 77 -35 l23 -43 18 55 c10 30 16 44 14 30 -3 -14 -7 -52 -10 -85 -6
-66 -9 -72 36 83 12 40 23 71 24 69 2 -2 -10 -66 -26 -143 -35 -162 -39 -254
-12 -275 15 -13 16 -12 3 4 -12 15 -12 20 -1 30 9 9 11 9 6 0 -3 -6 -2 -14 3
-17 5 -4 7 -22 4 -40 -5 -32 -3 -36 34 -55 25 -12 45 -32 53 -51 23 -55 29
-42 27 62 -1 57 1 130 6 163 l7 60 -42 27 c-41 26 -42 28 -16 28 18 0 31 -7
38 -21 7 -11 14 -18 17 -15 12 12 40 242 32 263 -5 13 -23 32 -41 43 -23 14
-27 20 -15 20 10 0 29 -12 44 -26 14 -14 26 -24 27 -22 6 8 62 105 69 118 15
30 -1 -25 -36 -121 -50 -138 -57 -183 -63 -374 -2 -93 -6 -194 -9 -223 -3 -31
1 -74 9 -105 8 -29 17 -106 20 -172 3 -66 12 -160 20 -210 31 -180 20 -252
-65 -400 -147 -258 -199 -372 -239 -535 -36 -145 -39 -154 -45 -149 -10 10 79
359 115 450 32 80 73 148 128 211 77 88 86 120 79 296 -4 81 -12 190 -18 242
-6 52 -14 124 -17 160 -6 58 -9 65 -28 62 -14 -2 -24 6 -33 24 -6 15 -14 24
-18 21 -3 -4 0 -13 7 -22 7 -9 10 -19 6 -23 -4 -4 -12 1 -17 10 -5 9 -18 15
-29 13 -11 -2 -22 0 -25 5 -3 5 4 7 15 5 12 -2 25 4 34 16 10 15 15 17 18 7 4
-10 8 -11 20 -1 8 7 18 10 21 6 14 -13 6 18 -17 70 -21 48 -30 57 -90 88 -36
19 -66 39 -66 45 0 6 -35 36 -77 66 -108 76 -104 75 -97 36 l6 -33 -41 47
c-34 38 -133 108 -153 108 -3 0 -3 -12 -1 -27 3 -26 3 -27 -9 -8 -16 25 -80
89 -138 138 l-45 37 40 -19 c22 -11 53 -29 70 -40 l30 -21 12 53 c25 106 12
187 -38 237 -17 16 -28 30 -24 30 18 0 67 -45 83 -76 l18 -35 62 126 c78 159
79 171 12 220 -19 14 -29 25 -23 25 5 0 27 -13 47 -29 21 -17 44 -27 52 -24 7
3 28 30 46 62 17 31 48 81 68 111 43 65 60 109 60 160 0 43 -32 90 -60 90 -10
0 -67 -48 -127 -107 -127 -127 -270 -330 -377 -538 -37 -72 -71 -134 -77 -140
-9 -9 95 217 144 313 59 114 384 492 424 492 6 0 24 -5 38 -12z m1413 -66
c100 -102 266 -304 314 -384 21 -35 52 -97 69 -138 17 -41 49 -108 70 -147 22
-40 37 -73 35 -73 -7 0 -88 147 -119 213 -35 77 -136 223 -152 219 -8 -1 -16
2 -20 8 -3 6 0 7 9 4 9 -3 16 -3 16 1 0 23 -140 199 -195 245 -16 14 -48 44
-70 68 -47 49 -75 53 -104 16 -40 -51 -25 -127 47 -233 21 -31 51 -79 67 -108
15 -29 35 -54 44 -55 9 -2 35 11 59 29 24 18 49 33 55 33 7 0 3 -6 -8 -12 -35
-19 -85 -71 -85 -88 0 -10 29 -77 64 -151 62 -129 64 -133 75 -106 11 28 68
87 84 87 5 0 -5 -16 -22 -35 -36 -41 -55 -105 -47 -157 4 -23 2 -38 -4 -38
-10 0 -14 14 -11 38 1 6 -3 12 -10 12 -6 0 -8 7 -5 16 3 8 2 12 -4 9 -6 -3
-10 1 -10 10 0 10 5 14 13 10 6 -4 4 0 -5 8 -10 8 -18 19 -18 26 0 19 -61 135
-79 149 -9 7 -10 10 -2 6 9 -4 12 -2 9 7 -3 8 -13 16 -23 17 -10 3 -15 0 -11
-7 5 -7 1 -8 -9 -4 -12 4 -13 8 -5 13 9 6 7 11 -6 19 -17 11 -16 11 6 6 l25
-7 -23 17 c-12 9 -19 21 -16 27 4 6 -1 8 -16 3 -16 -5 -20 -4 -15 5 4 7 1 17
-6 22 -10 7 -11 11 -3 14 13 5 7 41 -10 64 -6 8 -20 31 -30 50 -11 19 -28 46
-38 60 -10 14 -33 46 -51 71 -35 50 -89 124 -112 152 -8 9 -28 17 -45 17 -25
0 -33 -6 -47 -35 -29 -60 4 -157 112 -332 21 -35 41 -63 45 -63 4 0 19 11 34
25 15 13 36 29 47 35 21 12 43 5 33 -11 -3 -5 -10 -7 -15 -4 -15 10 -57 -41
-64 -79 -8 -41 1 -70 55 -166 20 -36 42 -81 50 -100 7 -19 15 -37 16 -39 2 -2
22 13 44 33 30 27 49 36 74 36 38 0 57 -17 35 -31 -22 -14 -39 -11 -33 6 4 8
1 15 -5 15 -17 0 -81 -67 -81 -85 0 -9 -4 -14 -9 -10 -6 3 -8 -8 -6 -27 3 -18
7 -63 10 -100 4 -40 12 -72 21 -79 12 -10 12 -14 2 -20 -8 -5 -9 -9 -2 -9 6 0
22 8 35 18 13 10 43 29 65 41 37 21 88 91 66 91 -4 0 -8 8 -8 19 0 12 5 17 14
13 11 -4 10 3 -4 24 -18 29 -18 29 2 12 11 -10 26 -18 32 -18 7 0 12 -16 12
-40 0 -43 5 -47 29 -27 31 26 111 67 105 55 -2 -7 -29 -31 -59 -52 -30 -22
-55 -42 -55 -45 -1 -3 -17 -24 -37 -46 -34 -38 -35 -39 -29 -12 3 15 2 27 -2
27 -23 0 -133 -83 -156 -117 -27 -39 -29 -38 -26 9 1 22 -2 27 -14 22 -9 -3
-16 -10 -16 -14 0 -4 -27 -26 -60 -49 -32 -23 -69 -54 -82 -70 -13 -15 -48
-40 -79 -55 -51 -24 -60 -33 -82 -84 -32 -71 -46 -132 -46 -199 1 -29 -4 -67
-9 -85 -14 -45 -27 -217 -27 -363 0 -136 9 -163 79 -243 63 -71 101 -134 135
-226 23 -61 111 -398 111 -424 0 -33 -11 0 -43 129 -45 174 -112 327 -233 524
-71 117 -87 166 -87 275 1 52 8 133 17 179 9 46 16 118 16 160 0 42 5 105 12
141 6 36 11 99 10 140 0 57 2 65 7 35 5 -31 8 -36 14 -22 4 10 7 31 7 45 0 20
3 23 9 13 8 -12 12 -12 26 2 9 10 21 15 26 11 5 -3 8 0 7 8 -2 7 7 14 20 16
12 2 22 11 22 20 0 15 2 15 10 2 8 -13 10 -13 10 1 0 25 -11 29 -41 14 -41
-22 -43 -18 -7 14 19 17 36 25 39 19 14 -23 20 16 17 112 -2 81 -6 100 -18
100 -25 0 -121 -72 -116 -86 3 -7 1 -16 -5 -19 -5 -4 -7 -32 -3 -68 3 -34 1
-80 -4 -102 l-10 -40 -1 50 c-1 28 -6 70 -11 95 -6 28 -5 86 2 155 10 106 10
113 -17 210 -50 184 -51 271 -2 296 12 7 23 13 25 14 2 2 -6 21 -17 44 -12 22
-21 48 -21 58 1 10 9 -2 19 -27 9 -25 35 -74 57 -110 22 -36 46 -80 53 -97 7
-18 19 -33 26 -33 8 0 11 -8 8 -20 -6 -23 57 -280 69 -280 3 0 10 10 13 23 9
28 54 77 72 77 15 0 18 -26 3 -35 -5 -3 -10 -1 -10 5 0 21 -18 1 -44 -50 -24
-45 -26 -60 -26 -164 l0 -115 70 37 c64 33 71 40 67 64 -2 15 0 25 5 22 15 -9
20 26 7 43 -12 14 -12 16 1 8 12 -6 13 -5 3 6 -7 7 -13 19 -13 27 0 12 3 12
15 2 12 -10 15 -10 15 3 0 9 -8 21 -17 26 -17 10 -17 10 1 11 15 0 17 5 12 28
-4 15 -10 40 -13 55 -3 16 -12 31 -19 34 -8 3 -14 10 -14 17 0 6 -9 22 -19 35
-10 14 -17 31 -14 38 3 8 -3 23 -13 35 -11 12 -13 18 -5 13 19 -11 5 30 -25
75 -13 19 -24 43 -24 53 0 10 -6 20 -13 23 -8 3 -14 10 -14 17 0 7 -14 36 -31
64 -39 66 -98 179 -111 216 -11 27 -11 27 -40 12 -36 -18 -43 -29 -53 -80 -6
-35 -7 -33 -4 14 4 58 28 91 66 91 16 0 17 5 8 43 -18 80 9 147 59 147 38 0
59 -16 103 -77 l40 -56 0 45 c0 63 43 115 98 117 7 1 48 -34 90 -77z m147
-242 c10 -11 16 -20 13 -20 -3 0 -13 9 -23 20 -10 11 -16 20 -13 20 3 0 13 -9
23 -20z m-25 -34 c0 -11 -19 -15 -25 -6 -3 5 1 10 9 10 9 0 16 -2 16 -4z m179
-170 c9 -10 8 -15 -4 -20 -9 -3 -15 0 -15 10 0 9 -5 12 -12 8 -7 -4 -8 -3 -4
4 10 16 21 15 35 -2z m-1315 -28 c9 -12 16 -34 16 -48 0 -23 -1 -22 -18 10
-29 58 -57 49 -119 -40 -29 -41 -60 -94 -69 -118 -9 -23 -19 -41 -21 -38 -8 7
34 103 65 147 72 106 115 131 146 87z m-230 -50 c9 -12 13 -25 10 -30 -7 -11
-44 9 -44 24 0 7 -10 22 -22 35 l-22 23 32 -15 c18 -9 38 -26 46 -37z m1016
23 c0 -6 -5 -13 -12 -17 -7 -5 -8 -3 -3 6 5 8 3 11 -6 8 -8 -3 -14 -13 -14
-23 0 -10 -10 -21 -23 -26 -29 -11 -29 7 0 38 21 23 58 32 58 14z m575 -49
c-3 -3 3 -14 12 -25 18 -19 17 -20 -5 -8 -13 7 -21 18 -19 25 3 7 -6 21 -19
31 -13 10 -24 23 -24 28 0 6 13 -2 30 -18 16 -16 28 -31 25 -33z m585 -38 c44
-18 48 -31 31 -109 -12 -55 -21 -161 -30 -350 -7 -154 -9 -164 -46 -257 -22
-54 -40 -96 -42 -94 -2 1 4 27 11 57 23 87 44 217 51 309 3 47 11 111 16 144
9 54 9 59 -10 73 -26 18 -27 36 -2 28 16 -5 19 3 25 67 3 40 7 82 9 93 2 24
-36 33 -59 14 -8 -7 -14 -8 -13 -3 1 5 1 12 0 17 -2 13 -64 -23 -89 -52 -16
-18 -20 -20 -13 -6 13 27 51 62 81 74 34 13 34 13 80 -5z m-3275 -29 c46 -47
46 -62 -1 -19 -30 29 -43 34 -82 34 -65 0 -74 -8 -62 -50 6 -19 10 -59 10 -87
0 -57 1 -58 31 -43 22 12 24 7 9 -21 -6 -10 -17 -19 -26 -19 -10 0 -13 -7 -9
-25 3 -14 7 -35 10 -47 2 -13 9 -81 15 -153 5 -71 21 -179 35 -240 14 -60 25
-112 25 -115 0 -3 -19 42 -41 100 -39 103 -40 109 -49 285 -11 214 -19 301
-31 333 -26 69 -2 99 83 101 42 1 52 -3 83 -34z m2709 -11 c3 -8 2 -12 -4 -9
-6 3 -10 10 -10 16 0 14 7 11 14 -7z m15 -57 c0 -21 -1 -21 -9 -2 -12 28 -12
37 0 30 6 -3 10 -16 9 -28z m31 3 c0 -5 -2 -10 -4 -10 -3 0 -8 5 -11 10 -3 6
-1 10 4 10 6 0 11 -4 11 -10z m34 -49 c-2 -3 -12 3 -22 13 -16 17 -16 18 5 5
12 -7 20 -15 17 -18z m283 -33 c-8 -19 -23 -71 -32 -116 -20 -92 -15 -117 37
-183 33 -44 34 -49 8 -49 -13 0 -18 5 -13 16 3 8 -3 25 -14 37 -11 12 -25 31
-31 42 -10 19 -11 19 -17 -6 -3 -13 -1 -38 5 -53 12 -32 6 -46 -12 -28 -9 9
-19 -2 -42 -43 -17 -30 -45 -69 -62 -88 -17 -19 -46 -54 -64 -78 -18 -24 -30
-36 -26 -25 5 14 -2 11 -28 -11 -18 -17 -85 -64 -148 -106 -64 -42 -127 -90
-142 -107 -14 -17 -26 -28 -26 -23 0 21 113 122 203 181 92 60 135 97 182 153
50 60 50 57 13 79 -33 20 -32 28 2 10 15 -8 18 -6 15 13 -10 62 -14 110 -7 97
19 -38 55 -90 59 -86 15 14 -56 300 -87 354 -11 17 -16 32 -12 32 13 0 89
-150 106 -209 9 -30 16 -68 16 -83 0 -74 44 35 60 147 4 33 20 86 34 119 28
61 48 74 23 14z m-2942 -137 c3 -31 10 -64 15 -73 6 -10 10 -26 10 -35 1 -10
7 -29 14 -42 13 -23 13 -22 19 21 8 60 39 140 83 213 19 33 32 51 28 40 -4
-11 -19 -54 -35 -96 -15 -42 -35 -115 -44 -162 l-18 -87 41 -62 c49 -75 146
-173 161 -164 6 4 11 2 11 -4 0 -6 4 -9 9 -6 4 3 17 -4 27 -16 11 -11 44 -39
74 -61 71 -53 140 -117 140 -130 0 -5 -11 2 -24 17 -14 14 -71 56 -128 92 -57
37 -120 80 -140 96 -21 16 -38 26 -38 22 0 -3 -10 6 -22 22 -12 16 -42 51 -66
77 -24 26 -56 75 -71 109 -23 49 -29 57 -34 39 -3 -11 -10 -21 -16 -21 -6 0
-6 13 3 38 7 20 10 45 7 54 -5 14 -12 10 -38 -22 -20 -23 -31 -45 -27 -54 4
-11 1 -16 -10 -16 -23 0 -20 12 19 70 41 61 43 86 15 196 -11 43 -23 88 -25
99 -3 11 8 -7 25 -39 16 -33 32 -84 35 -115z m255 139 c0 -5 -2 -10 -4 -10 -3
0 -8 5 -11 10 -3 6 -1 10 4 10 6 0 11 -4 11 -10z m-9 -27 c13 -16 12 -17 -3
-4 -10 7 -18 15 -18 17 0 8 8 3 21 -13z m522 -115 c-10 -21 -10 -21 -9 9 1 19
5 28 10 23 6 -6 5 -18 -1 -32z m212 -158 c3 -5 1 -10 -4 -10 -6 0 -11 5 -11
10 0 6 2 10 4 10 3 0 8 -4 11 -10z m-633 -146 c28 -29 56 -50 60 -48 4 3 8 -2
8 -10 0 -9 5 -16 10 -16 6 0 10 -7 10 -16 0 -8 5 -12 10 -9 6 3 10 -1 10 -9 0
-20 71 -153 126 -236 50 -76 94 -120 149 -149 22 -12 32 -21 24 -21 -36 0 -92
33 -142 83 -56 56 -57 58 -114 157 -75 132 -163 257 -230 324 -65 66 -66 68
-21 36 26 -18 71 -57 100 -86z m2263 44 c-72 -74 -156 -190 -202 -283 -62
-122 -142 -214 -222 -255 -59 -30 -72 -24 -20 8 67 43 127 117 198 243 35 63
84 140 108 172 40 52 186 187 202 187 4 0 -25 -33 -64 -72z m126 25 c13 -16
12 -17 -3 -4 -10 7 -18 15 -18 17 0 8 8 3 21 -13z m-1691 -64 c0 -6 -4 -7 -10
-4 -5 3 -10 11 -10 16 0 6 5 7 10 4 6 -3 10 -11 10 -16z m1664 -15 c3 -8 2
-12 -4 -9 -6 3 -10 10 -10 16 0 14 7 11 14 -7z m-19 -14 c3 -5 1 -10 -4 -10
-6 0 -11 5 -11 10 0 6 2 10 4 10 3 0 8 -4 11 -10z m-308 -64 c-32 -29 -127
-95 -210 -147 -84 -52 -180 -118 -215 -147 -35 -30 -66 -51 -69 -49 -9 9 80
98 143 143 34 24 88 56 120 71 85 38 194 105 194 118 0 7 8 12 17 12 9 0 26
12 37 26 11 15 25 27 30 27 6 -1 -15 -25 -47 -54z m-1695 -107 c53 -27 122
-65 152 -84 54 -34 170 -144 162 -153 -3 -2 -35 21 -73 51 -37 30 -123 88
-190 129 -132 81 -243 159 -243 170 0 5 21 -8 47 -28 26 -20 91 -58 145 -85z
m-690 -439 c19 -30 83 -106 142 -167 60 -62 104 -113 99 -113 -5 0 -20 11 -32
24 -12 13 -41 37 -65 54 l-44 32 5 -84 c4 -51 1 -104 -6 -133 -14 -53 -52
-146 -58 -140 -2 2 4 33 13 68 10 38 17 103 17 159 0 108 -19 171 -72 237 -31
38 -71 139 -85 213 -5 25 1 17 22 -30 15 -36 44 -90 64 -120z m2962 98 c-20
-74 -53 -144 -88 -184 -13 -17 -32 -56 -41 -89 -23 -79 -16 -244 14 -329 12
-33 20 -61 18 -62 -5 -6 -65 128 -76 172 -6 22 -20 49 -31 59 -22 20 -28 8 -7
-15 6 -8 2 -6 -11 5 -13 11 -19 21 -13 23 16 5 13 29 -5 36 -18 7 -147 -57
-137 -68 4 -4 0 -4 -9 -1 -10 4 -23 -3 -37 -21 -12 -15 -24 -24 -27 -21 -13
13 26 55 69 75 45 21 127 104 127 128 0 29 -32 31 -93 5 -48 -20 -83 -26 -159
-29 -67 -3 -98 0 -98 7 0 6 18 11 43 11 68 0 207 28 250 50 40 21 56 17 57
-15 0 -5 4 -4 9 4 6 9 11 10 15 2 13 -21 25 -1 16 25 -7 17 -7 23 0 19 6 -3
10 -1 10 6 0 7 7 4 16 -7 13 -16 15 -16 10 -2 -6 19 10 35 16 16 10 -28 124
146 159 240 20 54 22 28 3 -40z m-2242 7 c3 3 10 -6 16 -21 9 -18 9 -23 1 -18
-8 4 -9 -4 -5 -27 5 -30 5 -31 -4 -10 -6 13 -8 33 -4 44 4 11 2 17 -3 14 -6
-4 -15 6 -22 21 -10 23 -10 25 2 10 8 -10 16 -15 19 -13z m1078 -218 c0 -5 -4
-5 -10 -2 -5 3 -10 14 -10 23 0 15 2 15 10 2 5 -8 10 -19 10 -23z m-1558 -38
c46 -24 167 -48 241 -49 28 0 47 -5 47 -11 0 -8 -30 -10 -97 -7 -82 4 -109 9
-164 35 -37 17 -69 36 -73 42 -10 16 -1 14 46 -10z m1579 -53 c5 3 9 -5 9 -18
0 -18 2 -20 10 -8 11 17 13 10 4 -14 -8 -21 -20 -20 -27 2 -2 9 -7 24 -9 32
-3 8 -3 12 -1 7 3 -4 9 -5 14 -1z m-1211 -31 c0 -16 -66 -35 -122 -33 l-63 1
65 7 c36 3 76 11 90 18 31 13 30 13 30 7z m1703 -7 c12 -6 51 -15 87 -18 l65
-7 -58 -2 c-51 -1 -127 19 -127 33 0 9 9 7 33 -6z m-2078 -51 c11 -2 30 -8 41
-15 12 -6 24 -9 26 -6 8 7 78 -61 78 -76 0 -8 -9 -5 -25 10 -28 26 -50 40
-117 70 -26 12 -53 29 -60 38 -11 13 -9 13 12 -1 14 -9 35 -18 45 -20z m1630
23 c3 -5 -1 -10 -10 -10 -9 0 -13 5 -10 10 3 6 8 10 10 10 2 0 7 -4 10 -10z
m-891 -37 c-3 -10 -14 -29 -24 -43 -20 -25 -20 -25 -2 17 17 42 34 59 26 26z
m1009 -67 c7 4 9 4 5 -1 -4 -4 0 -14 10 -21 16 -13 16 -13 0 -14 -10 0 -28 19
-44 45 -21 37 -29 43 -41 34 -11 -10 -17 -9 -26 1 -10 10 -8 12 6 6 14 -4 20
0 24 15 5 19 9 16 30 -25 15 -30 28 -44 36 -40z m-1062 50 c-6 -7 -10 -20 -8
-27 2 -8 2 -11 -1 -6 -2 4 -17 -4 -34 -18 -16 -14 -37 -25 -46 -25 -11 0 -5 7
15 20 18 10 39 31 49 45 9 14 21 25 26 25 6 0 6 -5 -1 -14z m1081 -16 c10 -17
32 -37 50 -45 29 -12 30 -14 10 -15 -13 0 -36 13 -52 29 -17 16 -31 24 -33 17
-2 -6 -4 1 -4 17 -1 35 8 34 29 -3z m-1205 -16 c-3 -3 -12 -4 -19 -1 -8 3 -5
6 6 6 11 1 17 -2 13 -5z m119 -43 c-9 -8 -18 -12 -22 -9 -9 10 3 25 21 25 14
0 14 -2 1 -16z m1229 -141 c3 -5 1 -10 -4 -10 -6 0 -11 5 -11 10 0 6 2 10 4
10 3 0 8 -4 11 -10z m-2119 -37 c-8 -15 -15 -25 -16 -21 0 12 23 58 27 54 3
-2 -2 -17 -11 -33z m2888 -79 c3 -8 2 -12 -4 -9 -6 3 -10 10 -10 16 0 14 7 11
14 -7z m-2943 -37 c-10 -9 -11 -8 -5 6 3 10 9 15 12 12 3 -3 0 -11 -7 -18z
m3048 -182 c0 -5 -22 33 -49 85 -27 52 -49 100 -49 105 0 6 22 -33 49 -85 27
-52 49 -99 49 -105z m-3068 142 c-10 -9 -11 -8 -5 6 3 10 9 15 12 12 3 -3 0
-11 -7 -18z m2376 1 c-3 -8 -6 -5 -6 6 -1 11 2 17 5 13 3 -3 4 -12 1 -19z
m-2396 -41 c-10 -9 -11 -8 -5 6 3 10 9 15 12 12 3 -3 0 -11 -7 -18z m-40 -84
c-11 -21 -20 -35 -21 -31 0 12 33 78 38 74 2 -2 -6 -21 -17 -43z m3007 -498
c27 2 16 -12 -13 -17 -13 -2 -20 3 -23 17 -2 12 0 16 5 9 4 -6 18 -10 31 -9z"/>
<path d="M1471 2274 c0 -11 3 -14 6 -6 3 7 2 16 -1 19 -3 4 -6 -2 -5 -13z"/>
<path d="M2336 2799 c-34 -27 -34 -61 4 -183 27 -90 29 -105 26 -229 -3 -102
-1 -127 8 -112 22 39 84 95 105 95 12 0 20 4 16 9 -3 5 -1 12 4 16 6 3 8 12 4
20 -3 8 0 15 6 15 17 0 13 14 -13 52 -16 24 -22 44 -19 65 3 17 -2 46 -11 64
-8 19 -24 59 -36 89 -25 66 -52 120 -61 120 -3 0 -18 -9 -33 -21z m130 -230
c4 -7 0 -9 -12 -5 -11 3 -29 -3 -44 -14 -28 -22 -14 -28 15 -6 19 14 45 11 45
-5 0 -5 -10 -9 -23 -9 -13 0 -32 -7 -43 -15 -25 -19 -40 -19 -24 0 10 12 10
15 -1 15 -16 0 51 49 68 50 6 0 15 -5 19 -11z"/>
<path d="M2650 2566 c0 -2 7 -9 15 -16 13 -11 14 -10 9 4 -5 14 -24 23 -24 12z"/>
<path d="M2430 2330 c-14 -11 -21 -20 -17 -20 5 0 20 9 34 20 14 11 22 20 17
20 -5 0 -20 -9 -34 -20z"/>
<path d="M3333 2098 c-2 -16 1 -18 10 -9 7 7 8 14 1 21 -6 6 -10 2 -11 -12z"/>
<path d="M3320 1198 c0 -9 5 -20 10 -23 13 -8 13 5 0 25 -8 13 -10 13 -10 -2z"/>
<path d="M3243 1154 c-18 -14 -33 -30 -33 -35 0 -15 49 13 56 33 3 10 10 16
15 12 6 -3 8 -13 5 -21 -3 -8 -2 -11 4 -8 5 3 16 -8 25 -26 9 -17 19 -28 22
-25 6 5 -48 96 -57 96 -3 0 -20 -12 -37 -26z"/>
</g>
</svg>
